<svg viewBox="0 0 504.04 580" xmlns="http://www.w3.org/2000/svg" xmlns:xlink="http://www.w3.org/1999/xlink" overflow="hidden"><style>
.MsftOfcThm_Background1_Fill {
 fill:#FFFFFF; 
}
</style>
<g><path d="M78.406 78.473 264.421 78.473C266.63 78.473 268.421 76.682 268.421 74.473 268.421 72.264 266.63 70.473 264.421 70.473L78.406 70.473C76.197 70.473 74.406 72.264 74.406 74.473 74.406 76.682 76.197 78.473 78.406 78.473Z" fill="#FFFFFF"/><path d="M78.406 140.655 194.148 140.655C196.357 140.655 198.148 138.864 198.148 136.655 198.148 134.446 196.357 132.655 194.148 132.655L78.406 132.655C76.197 132.655 74.406 134.446 74.406 136.655 74.406 138.864 76.197 140.655 78.406 140.655Z" fill="#FFFFFF"/><path d="M503.801 458.637 487.506 413.698 487.506 227.833C487.506 207.353 470.887 190.691 450.458 190.691L326.292 190.691 326.292 37.142C326.292 16.662 309.673 0 289.245 0L53.582 0C33.154 0 16.535 16.662 16.535 37.142L16.535 223.007 0.239 267.945C-0.304 269.445 0.094 271.124 1.255 272.218 2.012 272.933 2.999 273.309 4.001 273.309L62.694 248.436 177.748 248.436 177.748 401.985C177.748 422.465 194.367 439.127 214.795 439.127L441.346 439.127 500.039 464C501.041 464 502.028 463.624 502.785 462.909 503.945 461.815 504.344 460.136 503.801 458.637ZM177.748 240.437 61.871 240.437C61.328 240.437 60.791 240.547 60.292 240.762L10.91 261.985 24.296 225.072C24.454 224.634 24.535 224.173 24.535 223.708L24.535 37.142C24.535 21.073 37.566 8 53.582 8L289.245 8C305.262 8 318.292 21.073 318.292 37.142L318.292 190.691 214.795 190.691C194.367 190.691 177.748 207.353 177.748 227.833L177.748 240.437ZM443.748 431.453C443.249 431.239 442.712 431.128 442.169 431.128L214.795 431.128C198.778 431.128 185.748 418.055 185.748 401.986L185.748 227.833C185.748 211.764 198.778 198.691 214.795 198.691L450.458 198.691C466.475 198.691 479.506 211.764 479.506 227.833L479.506 414.4C479.506 414.865 479.587 415.326 479.745 415.763L493.13 452.676 443.748 431.453Z" fill="#FFFFFF"/><path d="M239.619 269.164 425.634 269.164C427.843 269.164 429.634 267.373 429.634 265.164 429.634 262.955 427.843 261.164 425.634 261.164L239.619 261.164C237.41 261.164 235.619 262.955 235.619 265.164 235.619 267.373 237.41 269.164 239.619 269.164Z" fill="#FFFFFF"/><path d="M425.634 323.345 309.892 323.345C307.683 323.345 305.892 325.136 305.892 327.345 305.892 329.554 307.683 331.345 309.892 331.345L425.634 331.345C427.843 331.345 429.634 329.554 429.634 327.345 429.634 325.136 427.843 323.345 425.634 323.345Z" fill="#FFFFFF"/></g><text fill="#FFFFFF" font-family="Helvetica Neue,Helvetica,Arial-Unicode,Arial,Arial" font-weight="700" font-size="5" x="0" y="479">Created by Amethyst Studio</text><text fill="#FFFFFF" font-family="Helvetica Neue,Helvetica,Arial-Unicode,Arial,Arial" font-weight="700" font-size="5" x="0" y="484">from the Noun Project</text></svg>