<svg viewBox="-5 -10 110 135" xmlns="http://www.w3.org/2000/svg" xmlns:xlink="http://www.w3.org/1999/xlink" overflow="hidden"><path d="M88.703 54.453 83.1092 52.953 54.6442 69.734C52.6481 70.8317 50.6481 71.3317 48.4528 71.3317 47.4528 71.3317 46.4567 71.2301 45.4567 71.0309L17.5937 64.1403 10.8007 68.1364C9.90226 68.7341 9.99992 69.5348 9.99992 69.7341 10.1015 70.0349 10.1991 70.9333 11.1991 71.031L46.5541 79.9177C48.6518 80.5154 50.7494 80.1169 52.5463 79.0193L89.1983 57.4493C89.9991 56.9532 89.9991 56.1524 89.9991 55.754 89.9991 55.4532 89.6983 54.6563 88.7022 54.4532ZM88.8007 41.57 82.9101 40.07 54.6481 56.847C52.7497 58.0462 50.652 58.5462 48.4567 58.5462 47.4567 58.5462 46.4606 58.347 45.4606 58.1478L17.5976 51.2572 10.8046 55.2533C10.0038 55.8509 10.1053 56.6517 10.1053 56.9525 10.2069 57.2532 10.3046 58.1517 11.3045 58.3509L46.5585 67.0384C48.6562 67.636 50.7538 67.2376 52.6523 66.2376L81.5153 49.0576C81.6169 48.956 81.7146 48.956 81.7146 48.956L89.2068 44.5615C89.9997 43.9678 89.9997 43.167 89.9997 42.8701 89.9997 42.5693 89.6989 41.7685 88.8005 41.5693ZM11.3007 45.4645 46.5547 54.2536C48.6524 54.7536 50.75 54.4528 52.5469 53.3552L81.5079 36.2772C81.5079 36.1756 81.6094 36.1756 81.6094 36.1756L89.1992 31.6795C90 31.1834 90 30.285 89.8984 30.0857 89.8984 29.8865 89.6992 28.988 88.6992 28.7888L53.4452 19.9997C52.8476 19.8005 52.246 19.8005 51.5468 19.8005 50.1484 19.8005 48.7499 20.1989 47.453 20.9997L10.902 42.4687C10.0036 42.9687 10.1013 43.8671 10.1013 44.1679 10.2028 44.3671 10.3044 45.2656 11.3005 45.4648Z" fill="#ACF6BD"/><text fill="#ACF6BD" font-family="Arbeit Regular,Helvetica,Arial-Unicode,Arial,Arial" font-weight="700" font-size="5" x="0" y="117.5">Created by ARI NOFIANA</text><text fill="#ACF6BD" font-family="Arbeit Regular,Helvetica,Arial-Unicode,Arial,Arial" font-weight="700" font-size="5" x="0" y="122.5">from Noun Project</text></svg>